<svg xmlns="http://www.w3.org/2000/svg" width="29.57" height="29.57" viewBox="0 0 29.57 29.57">
  <path id="Icon_awesome-user-circle" data-name="Icon awesome-user-circle" d="M14.785.562A14.785,14.785,0,1,0,29.57,15.348,14.783,14.783,0,0,0,14.785.562Zm0,5.723a5.246,5.246,0,1,1-5.246,5.246A5.246,5.246,0,0,1,14.785,6.286Zm0,20.508a11.424,11.424,0,0,1-8.734-4.066,6.647,6.647,0,0,1,5.872-3.565,1.459,1.459,0,0,1,.423.066,7.893,7.893,0,0,0,2.438.411,7.863,7.863,0,0,0,2.438-.411,1.459,1.459,0,0,1,.423-.066,6.647,6.647,0,0,1,5.872,3.565A11.424,11.424,0,0,1,14.785,26.794Z" transform="translate(0 -0.563)" fill="#707070" opacity="0.59"/>
</svg>
