<svg xmlns="http://www.w3.org/2000/svg" width="21.377" height="28.503" viewBox="0 0 21.377 28.503">
  <path id="Path_1497" data-name="Path 1497" d="M82.816,0h-.152a1.937,1.937,0,0,0-1.8,1.222.891.891,0,0,1-1.654,0A1.938,1.938,0,0,0,77.4,0H77.32a1.937,1.937,0,0,0-1.8,1.222.891.891,0,0,1-1.654,0A1.938,1.938,0,0,0,72.057,0h-.081a1.937,1.937,0,0,0-1.8,1.222.891.891,0,0,1-1.654,0A1.938,1.938,0,0,0,66.713,0h-.152A2.564,2.564,0,0,0,64,2.561V25.942A2.564,2.564,0,0,0,66.561,28.5h.152a1.937,1.937,0,0,0,1.8-1.222.891.891,0,0,1,1.654,0,1.938,1.938,0,0,0,1.8,1.223h.081a1.937,1.937,0,0,0,1.8-1.222.891.891,0,0,1,1.654,0,1.938,1.938,0,0,0,1.8,1.223H77.4a1.937,1.937,0,0,0,1.8-1.222.891.891,0,0,1,1.654,0,1.938,1.938,0,0,0,1.8,1.223h.152a2.564,2.564,0,0,0,2.561-2.561V2.561A2.564,2.564,0,0,0,82.816,0ZM74.708,13.361a3.563,3.563,0,0,1,1.066,6.956.279.279,0,0,0-.2.265v.77a.907.907,0,0,1-.848.915.891.891,0,0,1-.934-.89v-.794a.28.28,0,0,0-.2-.266,3.569,3.569,0,0,1-2.475-3.354.909.909,0,0,1,.867-.93.891.891,0,0,1,.914.89,1.781,1.781,0,1,0,1.781-1.781A3.563,3.563,0,0,1,73.6,8.186a.279.279,0,0,0,.2-.265v-.77a.907.907,0,0,1,.848-.915.891.891,0,0,1,.934.89V7.92a.28.28,0,0,0,.2.266,3.569,3.569,0,0,1,2.475,3.354.909.909,0,0,1-.867.93.891.891,0,0,1-.914-.89,1.781,1.781,0,1,0-3.563.018A1.8,1.8,0,0,0,74.708,13.361Z" transform="translate(-64)" fill="#707070" opacity="0.6"/>
</svg>
